<svg width="463" height="841" viewBox="0 0 463 841" fill="none" xmlns="http://www.w3.org/2000/svg">
<g opacity="0.2">
<circle cx="43.9873" cy="6.23828" r="2" fill="#BD9B78"/>
<circle cx="127.323" cy="6.23828" r="2" fill="#BD9B78"/>
<circle cx="210.651" cy="6.23828" r="2" fill="#BD9B78"/>
<circle cx="293.987" cy="6.23828" r="2" fill="#BD9B78"/>
<circle cx="377.315" cy="6.23828" r="2" fill="#BD9B78"/>
<circle cx="460.651" cy="6.23828" r="2" fill="#BD9B78"/>
<circle cx="2.32324" cy="40.2383" r="2" fill="#BD9B78"/>
<circle cx="85.6553" cy="40.2383" r="2" fill="#BD9B78"/>
<circle cx="168.987" cy="40.2383" r="2" fill="#BD9B78"/>
<circle cx="252.319" cy="40.2383" r="2" fill="#BD9B78"/>
<circle cx="335.651" cy="40.2383" r="2" fill="#BD9B78"/>
<circle cx="418.983" cy="40.2383" r="2" fill="#BD9B78"/>
<circle cx="43.9873" cy="70.2383" r="2" fill="#BD9B78"/>
<circle cx="127.323" cy="70.2383" r="2" fill="#BD9B78"/>
<circle cx="210.651" cy="70.2383" r="2" fill="#BD9B78"/>
<circle cx="293.987" cy="70.2383" r="2" fill="#BD9B78"/>
<circle cx="377.315" cy="70.2383" r="2" fill="#BD9B78"/>
<circle cx="460.651" cy="70.2383" r="2" fill="#BD9B78"/>
<circle cx="2.32324" cy="104.238" r="2" fill="#BD9B78"/>
<circle cx="85.6553" cy="104.238" r="2" fill="#BD9B78"/>
<circle cx="168.987" cy="104.238" r="2" fill="#BD9B78"/>
<circle cx="252.319" cy="104.238" r="2" fill="#BD9B78"/>
<circle cx="335.651" cy="104.238" r="2" fill="#BD9B78"/>
<circle cx="418.983" cy="104.238" r="2" fill="#BD9B78"/>
<circle cx="43.9873" cy="134.238" r="2" fill="#BD9B78"/>
<circle cx="127.323" cy="134.238" r="2" fill="#BD9B78"/>
<circle cx="210.651" cy="134.238" r="2" fill="#BD9B78"/>
<circle cx="293.987" cy="134.238" r="2" fill="#BD9B78"/>
<circle cx="377.315" cy="134.238" r="2" fill="#ECE6DA"/>
<circle cx="460.651" cy="134.238" r="2" fill="#BD9B78"/>
<circle cx="2.32324" cy="168.238" r="2" fill="#BD9B78"/>
<circle cx="85.6553" cy="168.238" r="2" fill="#BD9B78"/>
<circle cx="168.987" cy="168.238" r="2" fill="#BD9B78"/>
<circle cx="252.319" cy="168.238" r="2" fill="#BD9B78"/>
<circle cx="335.651" cy="168.238" r="2" fill="#BD9B78"/>
<circle cx="418.983" cy="168.238" r="2" fill="#BD9B78"/>
<circle cx="43.9873" cy="198.238" r="2" fill="#BD9B78"/>
<circle cx="127.323" cy="198.238" r="2" fill="#BD9B78"/>
<circle cx="210.651" cy="198.238" r="2" fill="#BD9B78"/>
<circle cx="293.987" cy="198.238" r="2" fill="#BD9B78"/>
<circle cx="377.315" cy="198.238" r="2" fill="#BD9B78"/>
<circle cx="460.651" cy="198.238" r="2" fill="#BD9B78"/>
<circle cx="2.32324" cy="232.238" r="2" fill="#BD9B78"/>
<circle cx="85.6553" cy="232.238" r="2" fill="#BD9B78"/>
<circle cx="168.987" cy="232.238" r="2" fill="#BD9B78"/>
<circle cx="252.319" cy="232.238" r="2" fill="#BD9B78"/>
<circle cx="335.651" cy="232.238" r="2" fill="#BD9B78"/>
<circle cx="418.983" cy="232.238" r="2" fill="#BD9B78"/>
<circle cx="43.9873" cy="262.238" r="2" fill="#BD9B78"/>
<circle cx="127.323" cy="262.238" r="2" fill="#BD9B78"/>
<circle cx="210.651" cy="262.238" r="2" fill="#BD9B78"/>
<circle cx="293.987" cy="262.238" r="2" fill="#BD9B78"/>
<circle cx="377.315" cy="262.238" r="2" fill="#BD9B78"/>
<circle cx="460.651" cy="262.238" r="2" fill="#BD9B78"/>
<circle cx="2.32324" cy="296.238" r="2" fill="#BD9B78"/>
<circle cx="85.6553" cy="296.238" r="2" fill="#BD9B78"/>
<circle cx="168.987" cy="296.238" r="2" fill="#BD9B78"/>
<circle cx="252.319" cy="296.238" r="2" fill="#BD9B78"/>
<circle cx="335.651" cy="296.238" r="2" fill="#BD9B78"/>
<circle cx="418.983" cy="296.238" r="2" fill="#BD9B78"/>
<circle cx="43.9873" cy="326.238" r="2" fill="#BD9B78"/>
<circle cx="127.323" cy="326.238" r="2" fill="#BD9B78"/>
<circle cx="210.651" cy="326.238" r="2" fill="#BD9B78"/>
<circle cx="293.987" cy="326.238" r="2" fill="#BD9B78"/>
<circle cx="377.315" cy="326.238" r="2" fill="#BD9B78"/>
<circle cx="460.651" cy="326.238" r="2" fill="#BD9B78"/>
<circle cx="2.32324" cy="360.238" r="2" fill="#BD9B78"/>
<circle cx="85.6553" cy="360.238" r="2" fill="#BD9B78"/>
<circle cx="168.987" cy="360.238" r="2" fill="#BD9B78"/>
<circle cx="252.319" cy="360.238" r="2" fill="#BD9B78"/>
<circle cx="335.651" cy="360.238" r="2" fill="#BD9B78"/>
<circle cx="418.983" cy="360.238" r="2" fill="#BD9B78"/>
<circle cx="43.9873" cy="390.238" r="2" fill="#BD9B78"/>
<circle cx="127.323" cy="390.238" r="2" fill="#BD9B78"/>
<circle cx="210.651" cy="390.238" r="2" fill="#BD9B78"/>
<circle cx="293.987" cy="390.238" r="2" fill="#BD9B78"/>
<circle cx="377.315" cy="390.238" r="2" fill="#BD9B78"/>
<circle cx="460.651" cy="390.238" r="2" fill="#BD9B78"/>
<circle cx="2.32324" cy="424.238" r="2" fill="#BD9B78"/>
<circle cx="85.6553" cy="424.238" r="2" fill="#BD9B78"/>
<circle cx="168.987" cy="424.238" r="2" fill="#BD9B78"/>
<circle cx="252.319" cy="424.238" r="2" fill="#BD9B78"/>
<circle cx="335.651" cy="424.238" r="2" fill="#BD9B78"/>
<circle cx="418.983" cy="424.238" r="2" fill="#BD9B78"/>
<circle cx="43.9873" cy="454.238" r="2" fill="#BD9B78"/>
<circle cx="127.323" cy="454.238" r="2" fill="#BD9B78"/>
<circle cx="210.651" cy="454.238" r="2" fill="#BD9B78"/>
<circle cx="293.987" cy="454.238" r="2" fill="#BD9B78"/>
<circle cx="377.315" cy="454.238" r="2" fill="#BD9B78"/>
<circle cx="460.651" cy="454.238" r="2" fill="#BD9B78"/>
<circle cx="2.32324" cy="488.238" r="2" fill="#BD9B78"/>
<circle cx="85.6553" cy="488.238" r="2" fill="#BD9B78"/>
<circle cx="168.987" cy="488.238" r="2" fill="#BD9B78"/>
<circle cx="252.319" cy="488.238" r="2" fill="#BD9B78"/>
<circle cx="335.651" cy="488.238" r="2" fill="#BD9B78"/>
<circle cx="418.983" cy="488.238" r="2" fill="#BD9B78"/>
<circle cx="43.9873" cy="518.238" r="2" fill="#BD9B78"/>
<circle cx="127.323" cy="518.238" r="2" fill="#BD9B78"/>
<circle cx="210.651" cy="518.238" r="2" fill="#BD9B78"/>
<circle cx="293.987" cy="518.238" r="2" fill="#BD9B78"/>
<circle cx="377.315" cy="518.238" r="2" fill="#BD9B78"/>
<circle cx="460.651" cy="518.238" r="2" fill="#BD9B78"/>
<circle cx="2.32324" cy="552.238" r="2" fill="#BD9B78"/>
<circle cx="85.6553" cy="552.238" r="2" fill="#BD9B78"/>
<circle cx="168.987" cy="552.238" r="2" fill="#BD9B78"/>
<circle cx="252.319" cy="552.238" r="2" fill="#BD9B78"/>
<circle cx="335.651" cy="552.238" r="2" fill="#BD9B78"/>
<circle cx="418.983" cy="552.238" r="2" fill="#BD9B78"/>
<circle cx="43.9873" cy="582.238" r="2" fill="#BD9B78"/>
<circle cx="127.323" cy="582.238" r="2" fill="#BD9B78"/>
<circle cx="210.651" cy="582.238" r="2" fill="#BD9B78"/>
<circle cx="293.987" cy="582.238" r="2" fill="#BD9B78"/>
<circle cx="377.315" cy="582.238" r="2" fill="#BD9B78"/>
<circle cx="460.651" cy="582.238" r="2" fill="#BD9B78"/>
<circle cx="2.32324" cy="616.238" r="2" fill="#BD9B78"/>
<circle cx="85.6553" cy="616.238" r="2" fill="#BD9B78"/>
<circle cx="168.987" cy="616.238" r="2" fill="#BD9B78"/>
<circle cx="252.319" cy="616.238" r="2" fill="#BD9B78"/>
<circle cx="335.651" cy="616.238" r="2" fill="#BD9B78"/>
<circle cx="418.983" cy="616.238" r="2" fill="#BD9B78"/>
<circle cx="43.9873" cy="646.238" r="2" fill="#BD9B78"/>
<circle cx="127.323" cy="646.238" r="2" fill="#BD9B78"/>
<circle cx="210.651" cy="646.238" r="2" fill="#BD9B78"/>
<circle cx="293.987" cy="646.238" r="2" fill="#BD9B78"/>
<circle cx="377.315" cy="646.238" r="2" fill="#BD9B78"/>
<circle cx="460.651" cy="646.238" r="2" fill="#BD9B78"/>
<circle cx="2.32324" cy="680.238" r="2" fill="#BD9B78"/>
<circle cx="85.6553" cy="680.238" r="2" fill="#BD9B78"/>
<circle cx="168.987" cy="680.238" r="2" fill="#BD9B78"/>
<circle cx="252.319" cy="680.238" r="2" fill="#BD9B78"/>
<circle cx="335.651" cy="680.238" r="2" fill="#BD9B78"/>
<circle cx="418.983" cy="680.238" r="2" fill="#BD9B78"/>
<circle cx="43.9873" cy="710.238" r="2" fill="#BD9B78"/>
<circle cx="127.323" cy="710.238" r="2" fill="#BD9B78"/>
<circle cx="210.651" cy="710.238" r="2" fill="#BD9B78"/>
<circle cx="293.987" cy="710.238" r="2" fill="#BD9B78"/>
<circle cx="377.315" cy="710.238" r="2" fill="#BD9B78"/>
<circle cx="460.651" cy="710.238" r="2" fill="#BD9B78"/>
<circle cx="2.32324" cy="744.238" r="2" fill="#BD9B78"/>
<circle cx="85.6553" cy="744.238" r="2" fill="#BD9B78"/>
<circle cx="168.987" cy="744.238" r="2" fill="#BD9B78"/>
<circle cx="252.319" cy="744.238" r="2" fill="#BD9B78"/>
<circle cx="335.651" cy="744.238" r="2" fill="#BD9B78"/>
<circle cx="418.983" cy="744.238" r="2" fill="#BD9B78"/>
<circle cx="43.9873" cy="774.238" r="2" fill="#BD9B78"/>
<circle cx="127.323" cy="774.238" r="2" fill="#BD9B78"/>
<circle cx="210.651" cy="774.238" r="2" fill="#BD9B78"/>
<circle cx="293.987" cy="774.238" r="2" fill="#BD9B78"/>
<circle cx="377.315" cy="774.238" r="2" fill="#BD9B78"/>
<circle cx="460.651" cy="774.238" r="2" fill="#BD9B78"/>
<circle cx="2.32324" cy="808.238" r="2" fill="#BD9B78"/>
<circle cx="85.6553" cy="808.238" r="2" fill="#BD9B78"/>
<circle cx="168.987" cy="808.238" r="2" fill="#BD9B78"/>
<circle cx="252.319" cy="808.238" r="2" fill="#BD9B78"/>
<circle cx="335.651" cy="808.238" r="2" fill="#BD9B78"/>
<circle cx="418.983" cy="808.238" r="2" fill="#BD9B78"/>
<circle cx="43.9873" cy="838.238" r="2" fill="#BD9B78"/>
<circle cx="127.323" cy="838.238" r="2" fill="#BD9B78"/>
<circle cx="210.651" cy="838.238" r="2" fill="#BD9B78"/>
<circle cx="293.987" cy="838.238" r="2" fill="#BD9B78"/>
<circle cx="377.315" cy="838.238" r="2" fill="#BD9B78"/>
<circle cx="460.651" cy="838.238" r="2" fill="#BD9B78"/>
</g>
</svg>
