<svg width="87" height="22" viewBox="0 0 87 22" fill="none" xmlns="http://www.w3.org/2000/svg">
<path d="M18.3714 0.646429L18.7091 6.95186H18.287C18.0062 2.56003 15.3315 1.06844 12.2916 1.06844H7.67565V10.6103H9.89921C10.7156 10.6103 13.6144 10.6103 13.6144 6.61425H14.064V11.0046H5.09411V21.8066H3.76259V11.0046V1.06844H0.722656V0.646429H18.3714ZM25.1585 11.0046H27.7677V1.06844H31.2573V0.646429H20.7856V1.06844H23.8256V11.0046V21.8066H37.4114V20.657H25.1571V11.0046H25.1585ZM86.8711 0.646429V1.06844H84.6752L81.1434 11.0046H82.0194L78.7394 21.8066H77.0513L73.2678 11.0046H71.7806L67.8879 21.8066H66.7936L62.9052 11.0046L59.3327 1.06844H57.39V0.646429H77.4312V1.06844H75.4041L73.0961 7.31711L74.4363 11.0046L77.744 20.2918H77.811L80.6865 11.0046L84.1964 1.06844H81.353V0.646429H86.8696H86.8711ZM70.6877 11.0046H70.6033L66.846 1.06844H63.3273L66.8198 11.0046H64.1611L67.5838 20.088H67.6565L70.6877 11.0046ZM72.8429 6.7816L74.9544 1.06699H70.8725L72.8429 6.7816ZM57.5268 11.0046H57.4904C57.4904 12.4991 57.2692 13.9034 56.8297 15.216C56.3888 16.5286 55.7514 17.6695 54.9176 18.6372C54.0838 19.6049 53.0637 20.3674 51.8558 20.9219C50.648 21.4778 49.2787 21.7557 47.7449 21.7557C46.2111 21.7557 44.8374 21.4778 43.6208 20.9219C42.4042 20.366 41.3783 19.6049 40.5445 18.6372C39.7106 17.6695 39.0733 16.5286 38.6323 15.216C38.1914 13.9034 37.9717 12.5006 37.9717 11.0046H37.9353C37.9353 4.81269 42.608 0.195312 47.7303 0.195312C52.8527 0.195312 57.5253 4.83889 57.5253 11.0046H57.5268ZM56.2258 11.0046H53.2543C53.2543 5.59996 52.7712 0.618779 47.6765 0.618779C42.5818 0.618779 42.1831 6.10783 42.1831 11.0046H39.2392C39.2392 12.3274 39.4298 13.5731 39.814 14.7416C40.1967 15.9101 40.7526 16.9317 41.4816 17.8034C42.2092 18.675 43.1013 19.3706 44.1549 19.8872C45.2084 20.4053 46.4061 20.6628 47.7478 20.6628C49.0895 20.6628 50.2813 20.4038 51.3261 19.8872C52.371 19.3692 53.2572 18.675 53.9848 17.8034C54.7124 16.9317 55.2683 15.9116 55.6525 14.7416C56.0352 13.5731 56.2273 12.3274 56.2273 11.0046H56.2258Z" fill="#fff"/>
</svg>
