<svg width="19" height="22" viewBox="0 0 19 22" fill="none" xmlns="http://www.w3.org/2000/svg">
<g clip-path="url(#clip0_1169_42)">
<path d="M17.3714 0.646429L17.7091 6.95186H17.287C17.0062 2.56003 14.3315 1.06844 11.2916 1.06844H6.67565V10.6103H8.89921C9.71559 10.6103 12.6144 10.6103 12.6144 6.61425H13.064V11.0046H4.09411V21.8066H2.76259V11.0046V1.06844H-0.277344V0.646429H17.3714ZM24.1585 11.0046H26.7677V1.06844H30.2573V0.646429H19.7856V1.06844H22.8256V11.0046V21.8066H36.4114V20.657H24.1571V11.0046H24.1585ZM85.8711 0.646429V1.06844H83.6752L80.1434 11.0046H81.0194L77.7394 21.8066H76.0513L72.2678 11.0046H70.7806L66.8879 21.8066H65.7936L61.9052 11.0046L58.3327 1.06844H56.39V0.646429H76.4312V1.06844H74.4041L72.0961 7.31711L73.4363 11.0046L76.744 20.2918H76.811L79.6865 11.0046L83.1964 1.06844H80.353V0.646429H85.8696H85.8711ZM69.6877 11.0046H69.6033L65.846 1.06844H62.3273L65.8198 11.0046H63.1611L66.5838 20.088H66.6565L69.6877 11.0046ZM71.8429 6.7816L73.9544 1.06699H69.8725L71.8429 6.7816ZM56.5268 11.0046H56.4904C56.4904 12.4991 56.2692 13.9034 55.8297 15.216C55.3888 16.5286 54.7514 17.6695 53.9176 18.6372C53.0838 19.6049 52.0637 20.3674 50.8558 20.9219C49.648 21.4778 48.2787 21.7557 46.7449 21.7557C45.2111 21.7557 43.8374 21.4778 42.6208 20.9219C41.4042 20.366 40.3783 19.6049 39.5445 18.6372C38.7106 17.6695 38.0733 16.5286 37.6323 15.216C37.1914 13.9034 36.9717 12.5006 36.9717 11.0046H36.9353C36.9353 4.81269 41.608 0.195312 46.7303 0.195312C51.8527 0.195312 56.5253 4.83889 56.5253 11.0046H56.5268ZM55.2258 11.0046H52.2543C52.2543 5.59996 51.7712 0.618779 46.6765 0.618779C41.5818 0.618779 41.1831 6.10783 41.1831 11.0046H38.2392C38.2392 12.3274 38.4298 13.5731 38.814 14.7416C39.1967 15.9101 39.7526 16.9317 40.4816 17.8034C41.2092 18.675 42.1013 19.3706 43.1549 19.8872C44.2084 20.4053 45.4061 20.6628 46.7478 20.6628C48.0895 20.6628 49.2813 20.4038 50.3261 19.8872C51.371 19.3692 52.2572 18.675 52.9848 17.8034C53.7124 16.9317 54.2683 15.9116 54.6525 14.7416C55.0352 13.5731 55.2273 12.3274 55.2273 11.0046H55.2258Z" fill="#575349"/>
</g>
<defs>
<clipPath id="clip0_1169_42">
<rect width="19" height="22" fill="white"/>
</clipPath>
</defs>
</svg>
